<svg id="loyality-new" viewBox="0 0 24 24" width="100%" height="100%" xmlns="http://www.w3.org/2000/svg" fit="" preserveAspectRatio="xMidYMid meet" focusable="false"><path d="M17.65,2.85 L18.26,6.71 L21.77,8.5 L20,12 L21.78,15.5 L18.24,17.29 L17.63,21.15 L13.74,20.54 L10.97,23.3 L8.19,20.5 L4.33,21.14 L3.71,17.25 L0.22,15.47 L2,11.97 L0.23,8.5 L3.74,6.69 L4.35,2.86 L8.22,3.5 L11,0.69 L13.77,3.46 L17.65,2.85 Z M8.5,7 C7.67157288,7 7,7.67157288 7,8.5 C7,9.32842712 7.67157288,10 8.5,10 C9.32842712,10 10,9.32842712 10,8.5 C10,7.67157288 9.32842712,7 8.5,7 Z M13.5,14 C12.6715729,14 12,14.6715729 12,15.5 C12,16.3284271 12.6715729,17 13.5,17 C14.3284271,17 15,16.3284271 15,15.5 C15,14.6715729 14.3284271,14 13.5,14 Z M7.41,17 L16,8.41 L14.59,7 L6,15.59 L7.41,17 Z" id="Shape"></path></svg>