<svg id="question" viewBox="0 0 24 24" width="100%" height="100%" xmlns="http://www.w3.org/2000/svg" fit="" preserveAspectRatio="xMidYMid meet" focusable="false"><path fill-rule="evenodd" clip-rule="evenodd" d="M2.3999 0H21.6001C22.9199 0 24 1.08 24 2.4V24L19.2 19.2H2.3999C1.08008 19.2 0 18.12 0 16.8V2.4C0 1.08 1.08008 0 2.3999 0ZM5.33325 9.33336C5.33374 5.65084 8.31836 2.66667 12 2.66667C15.6819 2.66667 18.6665 5.6513 18.6665 9.33321L18.6663 9.36087C18.6514 13.03 15.6726 15.9997 12 15.9997L11.7991 15.9999C11.667 16 11.5356 16.0001 11.4014 15.9997H10.8652V11.1624H12.0276C13.0378 11.1624 13.8564 10.3435 13.8564 9.33321C13.8564 8.32307 13.0376 7.50433 12.0276 7.50433C11.0173 7.50433 10.1985 8.32307 10.1985 9.33336V10.4858V11.1624V15.9997H5.33325" fill="black" fill-opacity="0.38"></path></svg>