<svg id="briefcase_check" viewBox="0 0 24 24" width="100%" height="100%" xmlns="http://www.w3.org/2000/svg" fit="" preserveAspectRatio="xMidYMid meet" focusable="false"><path d="m10 3h4c.5304 0 1.0391.21071 1.4142.58579.3751.37507.5858.88378.5858 1.41421v2h4c.5304 0 1.0391.21071 1.4142.58579.3751.37507.5858.88378.5858 1.41421v11c0 .5304-.2107 1.0391-.5858 1.4142s-.8838.5858-1.4142.5858h-16c-.53043 0-1.03914-.2107-1.41421-.5858-.37508-.3751-.58579-.8838-.58579-1.4142v-11c0-.53043.21071-1.03914.58579-1.41421.37507-.37508.88378-.58579 1.41421-.58579h4v-2c0-.53043.21071-1.03914.58579-1.41421.37507-.37508.88378-.58579 1.41421-.58579zm4 4v-2h-4v2zm-3.5 11.5 6.59-6.59-1.41-1.41-5.18 5.17-2.09-2.08-1.41 1.41z"></path></svg>