<svg id="help_desk" viewBox="0 0 20 20" xmlns="http://www.w3.org/2000/svg" fit="" height="100%" width="100%" preserveAspectRatio="xMidYMid meet" focusable="false"><path d="M10,20C4.5,20,0,15.5,0,10C0,4.5,4.5,0,10,0c5.5,0,10,4.5,10,10C20,15.5,15.5,20,10,20z M10,2c-4.4,0-8,3.6-8,8s3.6,8,8,8s8-3.6,8-8S14.4,2,10,2z"></path><path d="M10,15c-2.8,0-5-2.2-5-5s2.2-5,5-5s5,2.2,5,5S12.8,15,10,15z M10,7c-1.7,0-3,1.3-3,3s1.3,3,3,3s3-1.3,3-3S11.7,7,10,7z"></path><path id="Rectangle" d="M6,1h8l-2,6H8L6,1z"></path><path id="Rectangle_1_" d="M6,19h8l-2-6H8L6,19z"></path><path id="Rectangle_2_" d="M19,6v8l-6-2V8L19,6z"></path> <path id="Rectangle_3_" d="M1,14V6l6,2v4L1,14z"></path></svg>