<!-- Generated by IcoMoon.io -->
<svg version="1.1" xmlns="http://www.w3.org/2000/svg" width="1024" height="1024" viewBox="0 0 1024 1024">
<title></title>
<g id="icomoon-ignore">
</g>
<path d="M160.488 1023.998c-64.418 0-116.825-52.41-116.825-116.828 0-13.019 10.556-23.577 23.577-23.577 13.019 0 23.577 10.558 23.577 23.577 0 38.417 31.254 69.673 69.671 69.673 13.019 0 23.577 10.558 23.577 23.577 0 13.022-10.558 23.577-23.577 23.577z"></path>
<path d="M863.986 1023.998h-703.498c-13.022 0-23.577-10.558-23.577-23.577s10.558-23.577 23.577-23.577c30.851 0 58.391-20.675 66.971-50.276 7.439-25.699 30.136-42.974 56.477-42.974h663.959c9.174 0 17.959 3.909 24.108 10.728 6.132 6.802 9.108 15.924 8.162 25.023-6.208 59.665-56.152 104.655-116.179 104.655zM254.21 976.844h609.776c30.085 0 55.923-18.94 65.597-46.096h-645.646c-5.142 0-9.638 3.591-11.185 8.94-3.959 13.658-10.32 26.175-18.541 37.155z"></path>
<path d="M770.688 930.75c-13.019 0-23.577-10.558-23.577-23.577v-588.747c0-13.019 10.558-23.577 23.577-23.577s23.577 10.558 23.577 23.577v588.747c0 13.019-10.556 23.577-23.577 23.577z"></path>
<path d="M67.24 930.75c-13.022 0-23.577-10.558-23.577-23.577v-718.776c0-32.501 26.442-58.943 58.943-58.943h360.26c13.019 0 23.577 10.558 23.577 23.577s-10.558 23.577-23.577 23.577h-360.26c-6.5 0-11.789 5.288-11.789 11.789v718.774c0 13.022-10.556 23.58-23.577 23.58z"></path>
<path d="M324.138 671.943c-10.749 0-20.166-7.257-22.842-17.707h0.002c-11.687-40.876-18.237-83.202-19.52-125.997-4.468-148.636 55.713-291.712 165.107-392.542 90.678-83.645 208.597-131.754 332.031-135.458 61.030-1.846 121.048 6.998 178.414 26.244 9.615 2.978 16.605 11.937 16.605 22.528 0 13.019-10.546 23.577-23.565 23.577-2.558 0-5.123-0.417-7.547-1.233-52.207-17.582-106.885-25.65-162.492-23.985-112.077 3.367-219.146 47.044-301.48 122.993-99.347 91.569-153.995 221.492-149.942 356.46 1.136 37.766 6.771 75.105 16.766 111.049 1.693 3.669 2.464 7.821 2.044 12.135-0.139 1.424-0.361 2.544-0.54 3.362-2.329 10.676-11.692 18.376-22.618 18.572-0.139 0.002-0.283 0.002-0.424 0.002zM323.871 648.33l-22.634 5.673 0.064 0.233 22.571-5.906z"></path>
<path d="M312.641 816.447c-12.654 0-23.12-10.039-23.549-22.78-1.622-48.050 2.367-98.369 11.864-149.558 2.374-12.805 14.672-21.255 27.482-18.881 12.802 2.374 21.257 14.679 18.881 27.482-8.874 47.834-12.609 94.722-11.1 139.36 0.441 13.015-9.754 23.919-22.766 24.36-0.271 0.012-0.545 0.017-0.811 0.017z"></path>
<path d="M324.258 671.306c-5.534 0-10.985-1.947-15.32-5.654-6.411-5.477-9.405-13.96-7.858-22.247 15.422-82.662 44.455-164.647 86.3-243.68 65.302-123.406 157.786-228.647 260.408-296.335 103.24-68.096 212.254-95.568 306.943-77.369 7.285 1.4 13.486 6.147 16.74 12.817 3.254 6.665 3.178 14.476-0.2 21.078-30.070 58.757-65.066 116.601-104.011 171.928-24.952 35.439-51.384 69.697-78.566 101.816-41.121 48.694-85.189 94.165-130.96 135.128-4.98 4.456-11.605 6.592-18.27 5.868l-99.307-10.787 22.594 60.219c3.756 10.009 0.309 21.29-8.403 27.491-73.542 52.341-148.303 92.171-222.208 118.374-2.572 0.908-5.234 1.353-7.88 1.353zM894.919 67.573c-164.183 0-352.852 140.643-465.865 354.206-32.459 61.308-56.755 124.401-72.479 188.078 51.745-21.92 103.872-50.84 155.596-86.338l-29.622-78.951c-2.876-7.663-1.57-16.271 3.449-22.738 5.015-6.467 13.019-9.86 21.17-8.985l126.881 13.783c41.364-37.662 81.235-79.139 118.627-123.42 26.3-31.077 51.875-64.215 76.022-98.515 31.080-44.151 59.549-89.945 84.883-136.505-6.182-0.413-12.404-0.615-18.661-0.615z"></path>
</svg>
